<svg xmlns="http://www.w3.org/2000/svg" width="111.28" height="35" viewBox="0 0 111.28 35"><rect class="svg__rect" x="0" y="0" width="111.28" height="35" fill="#F68614"/><rect class="svg__rect" x="111.28" y="0" width="0" height="35" fill="#389AD5"/><path class="svg__text" d="M15.69 22L14.22 22L14.22 13.47L16.14 13.47L18.60 20.01L21.06 13.47L22.97 13.47L22.97 22L21.49 22L21.49 19.19L21.64 15.43L19.12 22L18.06 22L15.55 15.43L15.69 19.19L15.69 22ZM33.29 22L27.71 22L27.71 13.47L33.25 13.47L33.25 14.66L29.19 14.66L29.19 17.02L32.70 17.02L32.70 18.19L29.19 18.19L29.19 20.82L33.29 20.82L33.29 22ZM39.17 14.66L36.53 14.66L36.53 13.47L43.30 13.47L43.30 14.66L40.64 14.66L40.64 22L39.17 22L39.17 14.66ZM47.83 22L46.29 22L49.51 13.47L50.84 13.47L54.07 22L52.53 22L51.83 20.01L48.52 20.01L47.83 22ZM50.18 15.28L48.94 18.82L51.41 18.82L50.18 15.28ZM59.50 22L58.03 22L58.03 13.47L59.95 13.47L62.41 20.01L64.87 13.47L66.78 13.47L66.78 22L65.31 22L65.31 19.19L65.45 15.43L62.93 22L61.87 22L59.36 15.43L59.50 19.19L59.50 22ZM72.30 22L70.76 22L73.98 13.47L75.31 13.47L78.54 22L76.99 22L76.30 20.01L72.99 20.01L72.30 22ZM74.64 15.28L73.41 18.82L75.88 18.82L74.64 15.28ZM82.06 19.42L82.06 19.42L83.55 19.42Q83.55 20.15 84.03 20.55Q84.51 20.95 85.40 20.95L85.40 20.95Q86.18 20.95 86.57 20.63Q86.96 20.32 86.96 19.80L86.96 19.80Q86.96 19.24 86.56 18.94Q86.16 18.63 85.13 18.32Q84.10 18.01 83.49 17.63L83.49 17.63Q82.33 16.90 82.33 15.72L82.33 15.72Q82.33 14.69 83.17 14.02Q84.01 13.35 85.35 13.35L85.35 13.35Q86.24 13.35 86.94 13.68Q87.64 14.01 88.03 14.61Q88.43 15.22 88.43 15.96L88.43 15.96L86.96 15.96Q86.96 15.29 86.54 14.91Q86.12 14.54 85.34 14.54L85.34 14.54Q84.61 14.54 84.21 14.85Q83.81 15.16 83.81 15.71L83.81 15.71Q83.81 16.18 84.24 16.50Q84.68 16.81 85.67 17.10Q86.67 17.40 87.27 17.78Q87.88 18.16 88.16 18.65Q88.44 19.13 88.44 19.79L88.44 19.79Q88.44 20.86 87.62 21.49Q86.80 22.12 85.40 22.12L85.40 22.12Q84.48 22.12 83.70 21.77Q82.92 21.43 82.49 20.83Q82.06 20.22 82.06 19.42ZM94.21 22L92.73 22L92.73 13.47L94.21 13.47L94.21 17.47L95.03 16.46L97.53 13.47L99.32 13.47L96.15 17.25L99.50 22L97.74 22L95.18 18.31L94.21 19.34L94.21 22Z" fill="#1E3145"/><path class="svg__text" d="" fill="#FFFFFF" x="124.28"/></svg>