<svg xmlns="http://www.w3.org/2000/svg" width="298.96" height="35" viewBox="0 0 298.96 35"><rect class="svg__rect" x="0" y="0" width="96.01" height="35" fill="#B7E803"/><rect class="svg__rect" x="94.01" y="0" width="204.95" height="35" fill="#389AD5"/><path class="svg__text" d="M15.69 22L14.22 22L14.22 13.47L16.14 13.47L18.60 20.01L21.06 13.47L22.97 13.47L22.97 22L21.49 22L21.49 19.19L21.64 15.43L19.12 22L18.06 22L15.55 15.43L15.69 19.19L15.69 22ZM27.44 18.00L27.44 18.00L27.44 17.52Q27.44 16.28 27.88 15.32Q28.33 14.37 29.13 13.86Q29.94 13.35 30.98 13.35Q32.02 13.35 32.83 13.85Q33.64 14.35 34.07 15.29Q34.51 16.23 34.52 17.48L34.52 17.48L34.52 17.96Q34.52 19.21 34.09 20.16Q33.65 21.10 32.85 21.61Q32.04 22.12 30.99 22.12L30.99 22.12Q29.96 22.12 29.14 21.61Q28.33 21.10 27.89 20.17Q27.45 19.23 27.44 18.00ZM28.92 17.46L28.92 17.96Q28.92 19.36 29.47 20.13Q30.02 20.90 30.99 20.90L30.99 20.90Q31.98 20.90 32.51 20.15Q33.04 19.40 33.04 17.96L33.04 17.96L33.04 17.51Q33.04 16.09 32.50 15.34Q31.97 14.58 30.98 14.58L30.98 14.58Q30.02 14.58 29.48 15.33Q28.94 16.09 28.92 17.46L28.92 17.46ZM40.47 22L38.98 22L38.98 13.47L41.98 13.47Q43.46 13.47 44.26 14.13Q45.07 14.79 45.07 16.05L45.07 16.05Q45.07 16.90 44.65 17.48Q44.24 18.06 43.50 18.37L43.50 18.37L45.42 21.92L45.42 22L43.83 22L42.12 18.71L40.47 18.71L40.47 22ZM40.47 14.66L40.47 17.52L41.99 17.52Q42.74 17.52 43.16 17.15Q43.58 16.77 43.58 16.11L43.58 16.11Q43.58 15.43 43.19 15.05Q42.81 14.68 42.03 14.66L42.03 14.66L40.47 14.66ZM50.24 22L48.70 22L51.92 13.47L53.25 13.47L56.48 22L54.93 22L54.24 20.01L50.93 20.01L50.24 22ZM52.58 15.28L51.35 18.82L53.82 18.82L52.58 15.28ZM65.79 22L60.44 22L60.44 13.47L61.92 13.47L61.92 20.82L65.79 20.82L65.79 22ZM71.48 22L70.00 22L70.00 13.47L71.48 13.47L71.48 22ZM75.86 19.42L75.86 19.42L77.34 19.42Q77.34 20.15 77.82 20.55Q78.30 20.95 79.20 20.95L79.20 20.95Q79.97 20.95 80.36 20.63Q80.75 20.32 80.75 19.80L80.75 19.80Q80.75 19.24 80.35 18.94Q79.96 18.63 78.93 18.32Q77.90 18.01 77.29 17.63L77.29 17.63Q76.12 16.90 76.12 15.72L76.12 15.72Q76.12 14.69 76.96 14.02Q77.80 13.35 79.14 13.35L79.14 13.35Q80.04 13.35 80.73 13.68Q81.43 14.01 81.83 14.61Q82.23 15.22 82.23 15.96L82.23 15.96L80.75 15.96Q80.75 15.29 80.33 14.91Q79.91 14.54 79.13 14.54L79.13 14.54Q78.41 14.54 78.01 14.85Q77.60 15.16 77.60 15.71L77.60 15.71Q77.60 16.18 78.04 16.50Q78.47 16.81 79.47 17.10Q80.46 17.40 81.07 17.78Q81.67 18.16 81.95 18.65Q82.23 19.13 82.23 19.79L82.23 19.79Q82.23 20.86 81.42 21.49Q80.60 22.12 79.20 22.12L79.20 22.12Q78.27 22.12 77.50 21.77Q76.72 21.43 76.29 20.83Q75.86 20.22 75.86 19.42Z" fill="#000000"/><path class="svg__text" d="M110.58 22L108.20 22L108.20 13.60L112.04 13.60Q113.18 13.60 114.02 13.98Q114.86 14.35 115.32 15.06Q115.77 15.76 115.77 16.71L115.77 16.71Q115.77 17.66 115.32 18.35Q114.86 19.05 114.02 19.42Q113.18 19.80 112.04 19.80L112.04 19.80L110.58 19.80L110.58 22ZM110.58 15.47L110.58 17.93L111.90 17.93Q112.63 17.93 113.00 17.61Q113.37 17.29 113.37 16.71L113.37 16.71Q113.37 16.12 113.00 15.80Q112.63 15.47 111.90 15.47L111.90 15.47L110.58 15.47ZM120.10 17.80L120.10 17.80Q120.10 16.55 120.70 15.55Q121.31 14.56 122.37 14.00Q123.43 13.43 124.76 13.43L124.76 13.43Q126.09 13.43 127.16 14.00Q128.22 14.56 128.83 15.55Q129.43 16.55 129.43 17.80L129.43 17.80Q129.43 19.05 128.83 20.04Q128.22 21.04 127.16 21.60Q126.10 22.17 124.76 22.17L124.76 22.17Q123.43 22.17 122.37 21.60Q121.31 21.04 120.70 20.04Q120.10 19.05 120.10 17.80ZM122.49 17.80L122.49 17.80Q122.49 18.51 122.80 19.05Q123.10 19.60 123.61 19.90Q124.13 20.20 124.76 20.20L124.76 20.20Q125.40 20.20 125.92 19.90Q126.43 19.60 126.73 19.05Q127.03 18.51 127.03 17.80L127.03 17.80Q127.03 17.09 126.73 16.54Q126.43 16 125.92 15.70Q125.40 15.40 124.76 15.40L124.76 15.40Q124.12 15.40 123.61 15.70Q123.10 16 122.80 16.54Q122.49 17.09 122.49 17.80ZM136.24 22L133.52 13.60L135.97 13.60L137.65 18.96L139.43 13.60L141.61 13.60L143.31 19.01L145.07 13.60L147.34 13.60L144.61 22L142.07 22L140.47 16.89L138.78 22L136.24 22ZM158.59 22L151.85 22L151.85 13.60L158.44 13.60L158.44 15.44L154.21 15.44L154.21 16.85L157.94 16.85L157.94 18.63L154.21 18.63L154.21 20.17L158.59 20.17L158.59 22ZM165.78 22L163.40 22L163.40 13.60L167.24 13.60Q168.39 13.60 169.22 13.98Q170.06 14.35 170.52 15.06Q170.98 15.76 170.98 16.71L170.98 16.71Q170.98 17.62 170.55 18.30Q170.12 18.98 169.33 19.36L169.33 19.36L171.14 22L168.60 22L167.07 19.77L165.78 19.77L165.78 22ZM165.78 15.47L165.78 17.93L167.10 17.93Q167.83 17.93 168.20 17.61Q168.57 17.29 168.57 16.71L168.57 16.71Q168.57 16.12 168.20 15.79Q167.83 15.47 167.10 15.47L167.10 15.47L165.78 15.47ZM182.51 22L175.76 22L175.76 13.60L182.35 13.60L182.35 15.44L178.12 15.44L178.12 16.85L181.85 16.85L181.85 18.63L178.12 18.63L178.12 20.17L182.51 20.17L182.51 22ZM191.28 22L187.31 22L187.31 13.60L191.28 13.60Q192.67 13.60 193.73 14.12Q194.80 14.63 195.39 15.58Q195.98 16.53 195.98 17.80L195.98 17.80Q195.98 19.07 195.39 20.02Q194.80 20.97 193.73 21.48Q192.67 22 191.28 22L191.28 22ZM189.69 15.50L189.69 20.10L191.19 20.10Q192.27 20.10 192.92 19.49Q193.57 18.88 193.57 17.80L193.57 17.80Q193.57 16.72 192.92 16.11Q192.27 15.50 191.19 15.50L191.19 15.50L189.69 15.50ZM212.22 22L207.68 22L207.68 13.60L211.98 13.60Q213.58 13.60 214.43 14.19Q215.27 14.79 215.27 15.79L215.27 15.79Q215.27 16.39 214.97 16.87Q214.67 17.34 214.14 17.62L214.14 17.62Q214.86 17.87 215.26 18.41Q215.67 18.94 215.67 19.70L215.67 19.70Q215.67 20.80 214.78 21.40Q213.90 22 212.22 22L212.22 22ZM210.03 18.58L210.03 20.28L212.03 20.28Q213.27 20.28 213.27 19.43L213.27 19.43Q213.27 18.58 212.03 18.58L212.03 18.58L210.03 18.58ZM210.03 15.31L210.03 16.94L211.66 16.94Q212.86 16.94 212.86 16.12L212.86 16.12Q212.86 15.31 211.66 15.31L211.66 15.31L210.03 15.31ZM222.51 18.95L219.31 13.60L221.82 13.60L223.81 16.94L225.80 13.60L228.10 13.60L224.89 18.99L224.89 22L222.51 22L222.51 18.95ZM241.24 22L238.52 13.60L240.97 13.60L242.65 18.96L244.43 13.60L246.61 13.60L248.31 19.01L250.07 13.60L252.34 13.60L249.61 22L247.07 22L245.47 16.89L243.78 22L241.24 22ZM263.59 22L256.85 22L256.85 13.60L263.44 13.60L263.44 15.44L259.21 15.44L259.21 16.85L262.94 16.85L262.94 18.63L259.21 18.63L259.21 20.17L263.59 20.17L263.59 22ZM272.94 22L268.40 22L268.40 13.60L272.70 13.60Q274.31 13.60 275.15 14.19Q275.99 14.79 275.99 15.79L275.99 15.79Q275.99 16.39 275.69 16.87Q275.40 17.34 274.86 17.62L274.86 17.62Q275.58 17.87 275.98 18.41Q276.39 18.94 276.39 19.70L276.39 19.70Q276.39 20.80 275.50 21.40Q274.62 22 272.94 22L272.94 22ZM270.75 18.58L270.75 20.28L272.75 20.28Q273.99 20.28 273.99 19.43L273.99 19.43Q273.99 18.58 272.75 18.58L272.75 18.58L270.75 18.58ZM270.75 15.31L270.75 16.94L272.38 16.94Q273.58 16.94 273.58 16.12L273.58 16.12Q273.58 15.31 272.38 15.31L272.38 15.31L270.75 15.31ZM280.22 21.34L280.22 21.34L281.08 19.55Q281.58 19.88 282.19 20.07Q282.81 20.25 283.42 20.25L283.42 20.25Q284.03 20.25 284.39 20.02Q284.75 19.79 284.75 19.37L284.75 19.37Q284.75 18.55 283.46 18.55L283.46 18.55L282.47 18.55L282.47 17.05L283.97 15.44L280.66 15.44L280.66 13.60L286.73 13.60L286.73 15.09L284.99 16.96Q286.03 17.18 286.59 17.82Q287.15 18.46 287.15 19.37L287.15 19.37Q287.15 20.11 286.74 20.75Q286.34 21.39 285.52 21.78Q284.70 22.17 283.49 22.17L283.49 22.17Q282.60 22.17 281.73 21.95Q280.86 21.74 280.22 21.34Z" fill="#FFFFFF" x="107.01"/></svg>